<svg width="42" height="61" viewBox="0 0 42 61" fill="none" xmlns="http://www.w3.org/2000/svg">
<path fill-rule="evenodd" clip-rule="evenodd" d="M19.6315 0.173285C17.1292 0.855763 15.4332 3.10502 15.4332 5.74129V6.5066L13.7353 6.56299C11.9409 6.62248 11.5613 6.72631 11.0247 7.30459C9.88027 8.53727 10.3062 10.9412 11.7677 11.4981C12.2513 11.6824 29.7282 11.6824 30.2119 11.4981C31.6734 10.9412 32.0993 8.53727 30.9549 7.30459C30.4192 6.72743 30.0377 6.62248 28.2606 6.56349L26.5789 6.5076L26.5147 5.43625C26.4369 4.13799 26.1113 3.21295 25.3809 2.21513C24.0954 0.458696 21.7018 -0.391327 19.6315 0.173285ZM22.0265 2.84544C23.748 3.83817 22.9536 6.53939 20.9406 6.5379C19.7793 6.53703 19.0136 5.77122 19.0166 4.6133C19.0208 2.98144 20.6266 2.03827 22.0265 2.84544ZM4.73078 11.1879C2.48764 12.0126 0.685814 14.1322 0.183867 16.5365C0.0290228 17.2788 0.0021042 20.1312 0.000251998 36.047C-0.00184717 54.2764 0.00358637 54.7097 0.244743 55.658C0.854365 58.0552 2.47208 59.7933 4.89686 60.6561L5.86346 61H20.9898H36.1161L37.036 60.697C39.4311 59.9082 41.2834 57.8507 41.7949 55.411C42.0679 54.109 42.0686 17.8439 41.7957 16.5365C41.2557 13.9498 39.3634 11.919 36.894 11.2761L36.4372 11.1573L36.1764 11.9454C35.5127 13.9516 33.7546 15.7604 31.6271 16.6255L30.9299 16.9091L21.454 16.9439C13.0584 16.9747 11.8898 16.9557 11.2051 16.778C8.91392 16.1834 6.71535 14.202 5.92668 12.0213C5.48179 10.7909 5.59539 10.8701 4.73078 11.1879ZM22.3513 27.0358C28.6585 27.8115 33.3319 33.0411 33.3352 39.3271C33.3361 40.9229 33.1908 41.8689 32.7177 43.3466C31.4754 47.2274 28.1328 50.3805 24.1135 51.4633C23.0541 51.7487 22.6658 51.7892 20.9898 51.7892C19.3152 51.7892 18.9251 51.7486 17.8697 51.4643C13.6127 50.3173 10.3189 47.056 9.06111 42.7426C8.59855 41.1564 8.51335 38.6571 8.86379 36.9526C9.93942 31.72 14.2167 27.7172 19.4463 27.049C20.6739 26.8921 21.1649 26.8899 22.3513 27.0358Z" fill="white"/>
</svg>
