<svg width="56" height="56" viewBox="0 0 56 56" fill="none" xmlns="http://www.w3.org/2000/svg">
<path fill-rule="evenodd" clip-rule="evenodd" d="M0.848995 0.221478C0.599033 0.353525 0.354432 0.605147 0.219988 0.868694C0.00645415 1.28726 0 1.50333 0 8.20097C0 14.9015 0.00645416 15.1145 0.220207 15.5337C0.36198 15.8117 0.594329 16.044 0.872296 16.1858C1.27956 16.3936 1.51169 16.406 4.97736 16.406C8.44302 16.406 8.67515 16.3936 9.08242 16.1858C9.56779 15.9381 9.95472 15.3079 9.95472 14.765C9.95472 14.2222 9.56779 13.5919 9.08242 13.3442C8.68445 13.1412 8.44083 13.124 5.96627 13.124H3.28177V7.21198C3.28177 1.50267 3.27423 1.28518 3.06157 0.868256C2.65791 0.0769588 1.66977 -0.21186 0.848995 0.221478ZM14.0855 0.221478C13.8355 0.353525 13.5909 0.605147 13.4565 0.868694C13.2429 1.28726 13.2365 1.50333 13.2365 8.20097C13.2365 14.9015 13.2429 15.1145 13.4567 15.5337C13.5985 15.8117 13.8308 16.044 14.1088 16.1858C14.5157 16.3934 14.7483 16.406 18.1592 16.406C21.57 16.406 21.8026 16.3934 22.2095 16.1858C22.6949 15.9381 23.0818 15.3079 23.0818 14.765C23.0818 14.2222 22.6949 13.5919 22.2095 13.3442C21.8123 13.1416 21.5678 13.124 19.1481 13.124H16.5183V11.483V9.84198H17.5072C18.2823 9.84198 18.5893 9.79439 18.9277 9.62176C19.4131 9.37407 19.8 8.74382 19.8 8.20097C19.8 7.65812 19.4131 7.02786 18.9277 6.78018C18.5893 6.60754 18.2823 6.55995 17.5072 6.55995H16.5183V4.91894V3.27792H19.1481C21.5678 3.27792 21.8123 3.26031 22.2095 3.0577C22.6949 2.81001 23.0818 2.17976 23.0818 1.63691C23.0818 1.09406 22.6949 0.463801 22.2095 0.216117C21.8018 0.00814558 21.5754 -0.00388853 18.1362 0.000706316C14.7267 0.00530116 14.4684 0.0193045 14.0855 0.221478ZM27.2126 0.221478C26.7507 0.465332 26.3636 1.1108 26.3636 1.63691C26.3636 2.17976 26.7505 2.81001 27.2359 3.0577C27.5743 3.23033 27.8813 3.27792 28.6565 3.27792H29.6454V9.18995C29.6454 14.8993 29.6529 15.1168 29.8656 15.5337C30.1132 16.0191 30.7434 16.406 31.2862 16.406C31.8291 16.406 32.4593 16.0191 32.7069 15.5337C32.9196 15.1168 32.9271 14.8993 32.9271 9.18995V3.27792H33.916C34.6912 3.27792 34.9982 3.23033 35.3366 3.0577C35.822 2.81001 36.2089 2.17976 36.2089 1.63691C36.2089 1.09406 35.822 0.463801 35.3366 0.216117C34.9289 0.00814558 34.7025 -0.00388853 31.2633 0.000706316C27.8538 0.00530116 27.5955 0.0193045 27.2126 0.221478ZM40.3397 0.221478C39.5976 0.613352 39.4907 0.998006 39.4907 3.27792C39.4907 5.57983 39.5956 5.94818 40.363 6.33973C40.9097 6.6187 41.3534 6.6187 41.9002 6.33973C42.6676 5.94818 42.7725 5.57983 42.7725 3.27792C42.7725 1.51142 42.7489 1.25379 42.5523 0.868256C42.1486 0.0769588 41.1604 -0.21186 40.3397 0.221478ZM49.8283 0.151351C48.4541 0.495199 47.1327 1.54764 46.5673 2.74875C45.6547 4.68701 46.0279 6.88137 47.5232 8.36988C48.4448 9.28743 49.7289 9.84198 50.9319 9.84198C52.2215 9.84198 53.0601 11.3482 52.3214 12.3376C51.8019 13.0334 50.6499 13.2325 49.9812 12.742C49.0902 12.0884 48.6466 12.0118 47.9178 12.3856C47.3601 12.6716 47.0388 13.1927 47.0388 13.8115C47.0388 14.3616 47.2596 14.7656 47.825 15.2495C50.1457 17.2361 53.8536 16.5148 55.2805 13.799C56.318 11.8245 55.9888 9.59747 54.4276 8.02899C53.5075 7.10466 52.2398 6.55995 51.0085 6.55995C49.7385 6.55995 48.905 5.03862 49.6375 4.0574C50.152 3.36829 51.3069 3.17169 51.9726 3.65995C52.8636 4.31351 53.3072 4.39009 54.0359 4.01638C54.5937 3.7303 54.915 3.20922 54.915 2.59045C54.915 2.04038 54.6942 1.63636 54.1288 1.15248C52.9864 0.174544 51.3023 -0.217439 49.8283 0.151351ZM37.1501 20.1548C36.5011 20.527 36.3183 20.9709 36.3183 22.1752V23.1889H18.8111C1.48085 23.1889 1.29958 23.1911 0.872296 23.4091C0.594329 23.5509 0.36198 23.7833 0.220207 24.0613C0.00306299 24.4871 0 24.6789 0 37.958C0 51.2371 0.00306299 51.429 0.220207 51.8548C0.36198 52.1328 0.594329 52.3652 0.872296 52.507C1.29958 52.725 1.48085 52.7272 18.8111 52.7272H36.3183V53.7162C36.3183 54.9348 36.5375 55.4557 37.1906 55.789C37.711 56.0545 38.1781 56.0692 38.6484 55.8346C39.132 55.5935 55.5344 39.2057 55.7975 38.7009C56.0547 38.2073 56.0668 37.735 55.8344 37.2688C55.5933 36.7852 39.2067 20.3815 38.702 20.1183C38.1711 19.8418 37.6759 19.8534 37.1501 20.1548ZM17.9951 29.9175C19.665 30.2681 21.5466 31.5832 21.7189 32.52C21.8206 33.073 21.5277 33.8335 21.0943 34.1421C20.383 34.6487 19.5694 34.5191 18.6168 33.7475C17.0391 32.4696 14.6134 33.0265 13.7058 34.8749L13.4006 35.4965V37.958C13.4006 40.2302 13.4183 40.4579 13.631 40.9174C13.9677 41.6453 14.4815 42.1753 15.1856 42.5212C15.6981 42.7728 15.9512 42.8264 16.6277 42.8264C17.3041 42.8264 17.5572 42.7728 18.0697 42.5212C19.0473 42.041 19.6874 41.1627 19.8638 40.0594L19.9374 39.5991H18.9264C17.7209 39.5991 17.173 39.364 16.8352 38.7018C16.428 37.9036 16.6999 37.0003 17.4791 36.5623C17.8867 36.3332 18.0467 36.317 19.9013 36.317C21.6758 36.317 21.9332 36.3404 22.3189 36.5373C23.026 36.8981 23.1912 37.3597 23.1912 38.9755C23.1912 41.3573 22.6634 42.76 21.2259 44.1976C20.2783 45.1452 19.439 45.6309 18.2033 45.947C16.6563 46.3426 14.9717 46.1357 13.5303 45.3727C12.6354 44.8989 11.3079 43.5737 10.8498 42.6966C10.2002 41.453 10.0641 40.6321 10.0641 37.958C10.0641 35.284 10.2002 34.4631 10.8498 33.2194C11.3083 32.3416 12.6353 31.0172 13.5321 30.5425C14.9045 29.816 16.4684 29.597 17.9951 29.9175ZM32.4022 29.877C34.2815 30.2793 35.792 31.7899 36.1943 33.6694C36.3604 34.4459 36.3626 41.4554 36.1969 42.2467C35.9033 43.6493 34.8957 44.9537 33.601 45.6073C30.7408 47.0512 27.2687 45.3853 26.597 42.2467C26.4304 41.4681 26.4287 34.4598 26.595 33.6694C26.797 32.7087 27.224 31.9375 27.9505 31.2209C29.1915 29.997 30.756 29.5248 32.4022 29.877ZM30.6037 33.2606C30.3538 33.3926 30.1092 33.6442 29.9747 33.9078C29.7674 34.3141 29.7548 34.5483 29.7548 37.958C29.7548 41.2954 29.7709 41.6086 29.9623 41.9838C30.2029 42.4556 30.8788 42.8811 31.3875 42.8811C31.9378 42.8811 32.5673 42.4968 32.8163 42.0087C33.0238 41.6017 33.0365 41.3692 33.0365 37.958C33.0365 34.5469 33.0238 34.3143 32.8163 33.9074C32.4127 33.1161 31.4245 32.8272 30.6037 33.2606Z" fill="white"/>
</svg>
