<svg width="50" height="50" viewBox="0 0 50 50" fill="none" xmlns="http://www.w3.org/2000/svg">
<path fill-rule="evenodd" clip-rule="evenodd" d="M42.2287 0.0724029C40.5668 0.196441 37.9185 0.587712 36.3445 0.941743C33.3512 1.61511 31.1311 2.38836 28.4946 3.67586C22.3178 6.69225 16.1886 12.6523 12.519 19.2105L12.0047 20.1296L20.94 29.0643L29.8754 37.9991L31.0182 37.3596C37.3839 33.7979 43.3416 27.637 46.3382 21.517C47.7236 18.6878 48.5621 16.1835 49.2257 12.894C49.7972 10.0614 49.9801 8.15021 49.9907 4.9004L50 2.06581L49.7262 1.50827C49.4197 0.884172 49.0379 0.51763 48.3871 0.222832C47.9906 0.0431773 47.7254 0.021478 45.6989 0.00241776C44.4624 -0.00921384 42.9008 0.0222599 42.2287 0.0724029ZM36.0704 8.63004C38.6843 9.27164 40.7721 11.376 41.4151 14.017C41.6578 15.014 41.6337 16.6341 41.3619 17.6016C40.6682 20.0703 38.8207 21.9884 36.4125 22.7404C35.3572 23.0699 33.7129 23.1172 32.6501 22.8485C31.1823 22.4773 29.9009 21.7512 28.9668 20.7612C25.6429 17.2388 26.6028 11.4807 30.8842 9.25991C32.5283 8.40708 34.2903 8.19312 36.0704 8.63004ZM33.3111 11.4547C31.7155 11.8414 30.474 13.0291 30.0577 14.5673C29.3343 17.2394 31.2276 19.9044 33.9709 20.0755C36.2953 20.2206 38.2201 18.6964 38.6267 16.3888C39.0218 14.1457 37.3591 11.8303 35.0504 11.4086C34.324 11.2759 34.0149 11.2841 33.3111 11.4547ZM10.3238 13.6527C8.0608 13.8377 7.54184 13.9282 6.9175 14.2466C6.10606 14.6606 5.66139 15.227 3.05689 19.1639C1.63695 21.3103 0.380254 23.2457 0.264321 23.4646C0.103324 23.7686 0.0528837 24.0363 0.0511241 24.5959C0.0492669 25.2273 0.088954 25.4013 0.337146 25.8494C0.67087 26.4517 1.18094 26.891 1.77889 27.0907C2.11623 27.2035 5.80371 27.8215 6.13881 27.8215C6.1868 27.8215 6.37028 27.2168 6.54663 26.4775C7.513 22.426 9.25171 18.5818 11.8513 14.7492C12.7794 13.3809 12.7391 13.4509 12.5904 13.4655C12.5205 13.4723 11.5006 13.5566 10.3238 13.6527ZM10.3317 23.9966C9.5782 26.0943 8.93206 28.8734 9.01887 29.6436C9.11691 30.5136 9.30753 30.732 14.3912 35.8025C19.1759 40.5746 19.3209 40.7091 19.8718 40.8798C20.3774 41.0365 20.5273 41.0421 21.2802 40.9333C22.4134 40.7694 24.4351 40.242 25.7982 39.7546C26.412 39.5351 26.9379 39.3317 26.9671 39.3026C27.0219 39.2478 10.8497 23.032 10.7401 23.032C10.7061 23.032 10.5223 23.466 10.3317 23.9966ZM5.71848 33.6028C5.61095 33.6613 4.32336 34.9025 2.85718 36.3612C-0.0395895 39.243 -0.115249 39.3463 0.0953079 40.1284C0.22043 40.5927 0.744282 41.0805 1.21212 41.1682C1.95982 41.3085 2.04526 41.2453 4.82532 38.4889C6.27224 37.0545 7.51212 35.7442 7.5868 35.5709C7.90606 34.8301 7.62678 34.0078 6.93842 33.6619C6.55601 33.4698 6.01193 33.4435 5.71848 33.6028ZM35.4345 38.0513C31.4573 40.764 27.3998 42.5821 23.1427 43.5593C22.6185 43.6795 22.1896 43.8186 22.1896 43.8681C22.1896 44.2055 22.8071 47.8916 22.9205 48.2308C23.1202 48.8287 23.5595 49.3387 24.1619 49.6724C24.6101 49.9206 24.7841 49.9603 25.4154 49.9584C25.9774 49.9566 26.2426 49.9064 26.5512 49.743C26.7727 49.6258 28.7082 48.3697 30.8523 46.9516C35.3628 43.9686 35.6981 43.6701 36.0637 42.3123C36.1516 41.9861 36.5737 37.4025 36.5221 37.3349C36.5152 37.3257 36.0257 37.6481 35.4345 38.0513ZM10.0196 38.0408C9.59599 38.258 0.413979 47.4477 0.188954 47.8797C0.085044 48.0792 0 48.3778 0 48.5434C0 49.0284 0.345748 49.5915 0.779472 49.8128C1.26354 50.0597 1.66569 50.0622 2.13001 49.8214C2.32942 49.7179 4.63372 47.4857 7.25064 44.8608C12.3826 39.7134 12.242 39.8833 12.0806 39.0231C11.9126 38.1278 10.8436 37.6183 10.0196 38.0408ZM14.3206 42.4722C14.1593 42.5732 12.8765 43.8157 11.47 45.2331C9.30303 47.4168 8.90235 47.8651 8.84565 48.1692C8.64242 49.2598 9.59834 50.1966 10.6305 49.9182C11.1555 49.7766 16.3683 44.5512 16.4706 44.0639C16.6119 43.391 16.3149 42.7325 15.7342 42.4324C15.3458 42.2315 14.6745 42.2505 14.3206 42.4722Z" fill="white"/>
</svg>
